# xmcd
#
# Track frame offsets:
#	150
#	19095
#	46085
#	62675
#	80515
#	95865
#	110408
#	131443
#	157793
#	176955
#	193345
#	207333
#	222350
#	237809
#	255960
#	274307
#	289625
#	307739
#	321108
#	339155
#
# Disc length: 4775 seconds
#
# Revision: 0
# Processed by: cddbd v1.5.2PL0 Copyright (c) Steve Scherf et al.
# Submitted via: audiograbber 1.83.01
#
DISCID=1912a514
DTITLE=Various Artist - Playboy Hits 2002
DYEAR=1900
DGENRE=
TTITLE0=Mabel - Hey girl
TTITLE1=In Grid - Tu es foutu (extended mix)
TTITLE2=Enrique Eglesias - Love to see you cry (metro mix)
TTITLE3=Kylie Minogue - Love at first sight
TTITLE4=Geri Haliwell - Feels like sex
TTITLE5=Roxette - Try (just a little bit harder)
TTITLE6=French Affair - Take my love mon amour
TTITLE7=Jenifer Lopez - Walking on sunshine (metro mix)
TTITLE8=Ronan Keating - When the world was mine
TTITLE9=Sarah Connor - If u were my man
TTITLE10=Modern Talking - You're not Lisa
TTITLE11=Vacuum - Starting (where the story ended)
TTITLE12=Holly Valance - Kiss kiss
TTITLE13=Marc Lavoine - J'ai tout oublie
TTITLE14=Billy More - Lonelyness
TTITLE15=ATC - Without your love
TTITLE16=Bosson - I love you
TTITLE17=DJ Mendez - Adrenaline
TTITLE18=Robin Cook - Susanna 2002
TTITLE19=Westlife - I cry
EXTD=
EXTT0=
EXTT1=
EXTT2=
EXTT3=
EXTT4=
EXTT5=
EXTT6=
EXTT7=
EXTT8=
EXTT9=
EXTT10=
EXTT11=
EXTT12=
EXTT13=
EXTT14=
EXTT15=
EXTT16=
EXTT17=
EXTT18=
EXTT19=
PLAYORDER=
